<svg width="24" height="24" viewBox="0 0 24 24" xmlns="http://www.w3.org/2000/svg"><g fill="none" fill-rule="evenodd"><g fill="#000"><path d="M8 13.024v-4.36C9.182 8.1 10 6.895 10 5.5 10 3.567 8.433 2 6.5 2S3 3.567 3 5.5c0 1.396.818 2.6 2 3.163v6.674c-1.182.562-2 1.767-2 3.163C3 20.433 4.567 22 6.5 22s3.5-1.567 3.5-3.5c0-.712-.213-1.374-.578-1.927.258-.67.668-1.456 1.31-2.098 1.414-1.414 4.243-1.414 5.657-2.83.836-.836 1.28-1.92 1.504-2.667C19.64 8.782 21 7.3 21 5.5 21 3.567 19.433 2 17.5 2S14 3.567 14 5.5c0 .99.41 1.884 1.07 2.52-.107.512-.343 1.046-.802 1.505-1.414 1.414-4.243 1.414-5.657 2.83-.232.23-.434.456-.61.67zM6.5 7C7.328 7 8 6.328 8 5.5S7.328 4 6.5 4 5 4.672 5 5.5 5.672 7 6.5 7zm11 0c.828 0 1.5-.672 1.5-1.5S18.328 4 17.5 4 16 4.672 16 5.5 16.672 7 17.5 7zm-11 13c.828 0 1.5-.672 1.5-1.5S7.328 17 6.5 17 5 17.672 5 18.5 5.672 20 6.5 20z"/></g></g></svg>