<?xml version="1.0" encoding="UTF-8" standalone="no"?>
<svg width="24px" height="24px" viewBox="0 0 24 24" version="1.1" xmlns="http://www.w3.org/2000/svg" xmlns:xlink="http://www.w3.org/1999/xlink" xmlns:sketch="http://www.bohemiancoding.com/sketch/ns">
    <!-- Generator: Sketch 3.2.2 (9983) - http://www.bohemiancoding.com/sketch -->
    <title>branch</title>
    <desc>Created with Sketch.</desc>
    <defs></defs>
    <g id="menu" stroke="none" stroke-width="1" fill="none" fill-rule="evenodd" sketch:type="MSPage">
        <g id="branch" sketch:type="MSLayerGroup" fill="#000000">
            <path d="M8,13.0244157 L8,8.66318442 C9.18247367,8.10145245 10,6.89619798 10,5.5 C10,3.56700338 8.43299662,2 6.5,2 C4.56700338,2 3,3.56700338 3,5.5 C3,6.89619798 3.81752633,8.10145245 5,8.66318442 L5,15.3368156 C3.81752633,15.8985475 3,17.103802 3,18.5 C3,20.4329966 4.56700338,22 6.5,22 C8.43299662,22 10,20.4329966 10,18.5 C10,17.7879754 9.7873831,17.1256101 9.42217516,16.57293 C9.67952196,15.9042028 10.0903932,15.1167136 10.732233,14.4748737 C12.1464466,13.0606602 14.9748737,13.0606602 16.3890873,11.6464466 C17.2263311,10.8092028 17.6705649,9.72412606 17.8936845,8.97810534 C19.6413557,8.78247694 21,7.29990266 21,5.5 C21,3.56700338 19.4329966,2 17.5,2 C15.5670034,2 14,3.56700338 14,5.5 C14,6.48978573 14.4108565,7.38361079 15.0713278,8.02023364 C14.9626543,8.53185019 14.7271064,9.06578682 14.267767,9.52512627 C12.8535534,10.9393398 10.0251263,10.9393398 8.6109127,12.3535534 C8.37812433,12.5863418 8.17571837,12.8111941 8,13.0244157 L8,13.0244157 Z M6.5,7 C7.32842712,7 8,6.32842712 8,5.5 C8,4.67157288 7.32842712,4 6.5,4 C5.67157288,4 5,4.67157288 5,5.5 C5,6.32842712 5.67157288,7 6.5,7 Z M17.5,7 C18.3284271,7 19,6.32842712 19,5.5 C19,4.67157288 18.3284271,4 17.5,4 C16.6715729,4 16,4.67157288 16,5.5 C16,6.32842712 16.6715729,7 17.5,7 Z M6.5,20 C7.32842712,20 8,19.3284271 8,18.5 C8,17.6715729 7.32842712,17 6.5,17 C5.67157288,17 5,17.6715729 5,18.5 C5,19.3284271 5.67157288,20 6.5,20 Z" id="stem" sketch:type="MSShapeGroup"></path>
        </g>
    </g>
</svg>