<?xml version="1.0" encoding="UTF-8" standalone="no"?>
<svg width="24px" height="24px" viewBox="0 0 24 24" version="1.1" xmlns="http://www.w3.org/2000/svg" xmlns:xlink="http://www.w3.org/1999/xlink" xmlns:sketch="http://www.bohemiancoding.com/sketch/ns">
    <!-- Generator: Sketch 3.2.2 (9983) - http://www.bohemiancoding.com/sketch -->
    <title>briefcase</title>
    <desc>Created with Sketch.</desc>
    <defs></defs>
    <g id="menu" stroke="none" stroke-width="1" fill="none" fill-rule="evenodd" sketch:type="MSPage">
        <g id="briefcase" sketch:type="MSLayerGroup" fill="#000000">
            <path d="M8,7 L4.99508929,7 C3.8926228,7 3,7.89805351 3,9.00585866 L3,18.9941413 C3,20.1029399 3.8932319,21 4.99508929,21 L19.0049107,21 C20.1073772,21 21,20.1019465 21,18.9941413 L21,9.00585866 C21,7.89706013 20.1067681,7 19.0049107,7 L15.9999999,7 L16,4.00292933 C16,3.43788135 15.5536144,3 15.0029699,3 L8.99703014,3 C8.45303631,3 8,3.44902676 8,4.00292933 L8,7 L8,7 Z M10,5 L14,5 L14,7 L10,7 L10,5 Z" sketch:type="MSShapeGroup"></path>
        </g>
    </g>
</svg>