<svg width="12px" height="24px" viewBox="0 0 12 24" xmlns="http://www.w3.org/2000/svg">
    <path d="M6,20 C7.1045695,20 8,19.1045695 8,18 C8,16.8954305 7.1045695,16 6,16 C4.8954305,16 4,16.8954305 4,18 C4,19.1045695 4.8954305,20 6,20 Z M6,14 C7.1045695,14 8,13.1045695 8,12 C8,10.8954305 7.1045695,10 6,10 C4.8954305,10 4,10.8954305 4,12 C4,13.1045695 4.8954305,14 6,14 Z M6,8 C7.1045695,8 8,7.1045695 8,6 C8,4.8954305 7.1045695,4 6,4 C4.8954305,4 4,4.8954305 4,6 C4,7.1045695 4.8954305,8 6,8 Z"></path>
</svg>