<svg width="24px" height="24px" viewBox="0 0 24 24" xmlns="http://www.w3.org/2000/svg">
    <path fill-rule="evenodd" d="M16,4 L16,2.99895656 C16,2.44724809 16.4438648,2 17,2 C17.5522847,2 18,2.44266033 18,2.99895656 L18,4 L19.0049107,4 C20.1067681,4 21,4.8926228 21,5.99508929 L21,20.0049107 C21,21.1067681 20.1073772,22 19.0049107,22 L4.99508929,22 C3.8932319,22 3,21.1073772 3,20.0049107 L3,5.99508929 C3,4.8932319 3.8926228,4 4.99508929,4 L6,4 L6,2.99895656 C6,2.44724809 6.44386482,2 7,2 C7.55228475,2 8,2.44266033 8,2.99895656 L8,4 L16,4 L16,4 Z M5,9 L19,9 L19,20 L5,20 L5,9 L5,9 Z M7,11 L11,11 L11,15 L7,15 L7,11 L7,11 Z"></path>
</svg>